<svg width="1818" height="1819" xmlns="http://www.w3.org/2000/svg" xmlns:xlink="http://www.w3.org/1999/xlink" xml:space="preserve" overflow="hidden"><defs><clipPath id="clip0"><rect x="1291" y="328" width="1818" height="1819"/></clipPath></defs><g clip-path="url(#clip0)" transform="translate(-1291 -328)"><path d="M1291 1237.5C1291 735.197 1697.97 328 2200 328 2702.03 328 3109 735.197 3109 1237.5 3109 1739.8 2702.03 2147 2200 2147 1697.97 2147 1291 1739.8 1291 1237.5Z" fill="#BFBFBF" fill-rule="evenodd"/><path d="M2186.7 461.434C2192.07 461.212 2197.45 461.068 2202.82 461.001 2242.3 460.838 2282.26 478.074 2310.09 505.863 2333.51 529.254 2347.36 558.621 2352.19 591.294 2355.99 616.98 2353.56 656.709 2353.61 684.142L2353.92 875.108 2353.6 1530.42 2358.67 1534.46C2372.41 1545.43 2386.31 1556.37 2398.37 1569.22 2436.17 1609.47 2460.64 1666.42 2466.51 1721.1 2466.74 1723.31 2466.95 1725.52 2467.13 1727.73 2467.31 1729.94 2467.46 1732.15 2467.58 1734.36 2467.71 1736.58 2467.8 1738.79 2467.87 1741.01 2467.94 1743.23 2467.98 1745.44 2468 1747.66 2468.01 1749.88 2468 1752.1 2467.95 1754.31 2467.91 1756.53 2467.84 1758.74 2467.74 1760.96 2467.65 1763.18 2467.52 1765.39 2467.37 1767.6 2467.22 1769.81 2467.04 1772.02 2466.83 1774.23 2466.62 1776.44 2466.39 1778.65 2466.13 1780.85 2465.86 1783.05 2465.58 1785.25 2465.26 1787.44 2464.94 1789.64 2464.6 1791.83 2464.23 1794.01 2463.85 1796.2 2463.46 1798.38 2463.03 1800.56 2462.6 1802.73 2462.15 1804.91 2461.67 1807.07 2461.19 1809.24 2460.68 1811.39 2460.15 1813.55 2459.62 1815.7 2459.05 1817.84 2458.47 1819.98 2457.88 1822.12 2457.27 1824.25 2456.63 1826.38 2455.98 1828.5 2455.32 1830.61 2454.63 1832.72 2453.93 1834.83 2453.22 1836.92 2452.47 1839.01 2451.72 1841.1 2450.95 1843.18 2450.16 1845.25 2449.36 1847.32 2448.53 1849.37 2447.69 1851.43 2446.84 1853.47 2445.96 1855.51 2445.07 1857.54 2444.17 1859.56 2443.24 1861.58 2442.29 1863.58 2441.34 1865.59 2440.37 1867.58 2439.37 1869.56 2438.37 1871.54 2437.35 1873.51 2436.3 1875.46 2435.25 1877.42 2434.18 1879.36 2433.08 1881.28 2431.99 1883.21 2430.87 1885.12 2429.72 1887.02 2428.58 1888.92 2427.41 1890.81 2426.22 1892.68 2425.03 1894.55 2423.82 1896.41 2422.58 1898.24 2421.34 1900.09 2420.08 1901.91 2418.8 1903.72 2417.52 1905.53 2416.21 1907.32 2414.89 1909.1 2413.56 1910.87 2412.21 1912.63 2410.84 1914.38 2409.47 1916.12 2408.07 1917.84 2406.66 1919.55 2404.38 1922.31 2402.05 1925.02 2399.66 1927.69 2397.27 1930.35 2394.83 1932.96 2392.33 1935.53 2389.84 1938.09 2387.29 1940.61 2384.69 1943.07 2382.1 1945.53 2379.45 1947.93 2376.75 1950.29 2374.06 1952.64 2371.32 1954.94 2368.53 1957.18 2365.74 1959.42 2362.91 1961.61 2360.03 1963.74 2357.16 1965.86 2354.24 1967.93 2351.28 1969.94 2348.31 1971.95 2345.31 1973.89 2342.27 1975.78 2339.23 1977.66 2336.16 1979.49 2333.04 1981.25 2329.93 1983.01 2326.78 1984.71 2323.6 1986.34 2320.41 1987.97 2317.2 1989.54 2313.95 1991.04 2310.7 1992.55 2307.42 1993.98 2304.12 1995.35 2300.82 1996.72 2297.48 1998.02 2294.13 1999.26 2290.77 2000.49 2287.39 2001.66 2283.98 2002.75 2280.58 2003.85 2277.15 2004.88 2273.7 2005.84 2270.25 2006.79 2266.79 2007.68 2263.3 2008.5 2247.37 2012.18 2231.37 2013.8 2215.14 2015.38 2197.6 2016.8 2179.71 2015.69 2162.36 2012.94 2157.9 2012.2 2153.45 2011.35 2149.02 2010.4 2144.6 2009.44 2140.2 2008.38 2135.83 2007.22 2131.45 2006.05 2127.11 2004.78 2122.8 2003.4 2118.49 2002.02 2114.21 2000.54 2109.97 1998.96 2105.73 1997.37 2101.53 1995.69 2097.38 1993.9 2093.22 1992.11 2089.1 1990.22 2085.04 1988.23 2080.97 1986.25 2076.95 1984.16 2072.99 1981.98 2069.02 1979.8 2065.11 1977.52 2061.26 1975.15 2057.4 1972.78 2053.6 1970.32 2049.87 1967.76 2046.13 1965.21 2042.46 1962.56 2038.85 1959.83 2035.24 1957.1 2031.7 1954.28 2028.23 1951.37 2024.76 1948.47 2021.36 1945.48 2018.03 1942.41 2014.7 1939.34 2011.45 1936.2 2008.28 1932.97 2005.1 1929.74 2002.01 1926.44 1998.99 1923.07 1995.98 1919.69 1993.05 1916.24 1990.2 1912.72 1987.35 1909.21 1984.59 1905.62 1981.91 1901.97 1979.41 1898.44 1977 1894.85 1974.68 1891.2 1972.35 1887.55 1970.12 1883.85 1967.98 1880.09 1965.83 1876.33 1963.78 1872.52 1961.82 1868.67 1959.87 1864.81 1958 1860.9 1956.23 1856.96 1954.47 1853.01 1952.8 1849.02 1951.22 1844.99 1949.65 1840.96 1948.17 1836.89 1946.8 1832.79 1945.43 1828.69 1944.15 1824.55 1942.98 1820.39 1941.8 1816.23 1940.73 1812.04 1939.76 1807.82 1938.79 1803.6 1937.93 1799.37 1937.17 1795.11 1936.4 1790.85 1935.74 1786.57 1935.19 1782.28 1934.64 1777.99 1934.19 1773.69 1933.84 1769.38 1933.5 1765.06 1933.26 1760.75 1933.13 1756.42 1932.99 1752.1 1932.96 1747.77 1933.04 1743.45 1933.12 1739.12 1933.3 1734.8 1933.59 1730.48 1933.88 1726.17 1934.27 1721.86 1934.77 1717.56 1935.27 1713.26 1935.87 1708.98 1936.58 1704.71 1936.94 1702.53 1937.34 1700.36 1937.76 1698.19 1938.17 1696.02 1938.62 1693.85 1939.09 1691.69 1939.57 1689.53 1940.07 1687.38 1940.59 1685.23 1941.12 1683.08 1941.67 1680.95 1942.25 1678.81 1942.83 1676.68 1943.44 1674.55 1944.06 1672.43 1944.7 1670.31 1945.36 1668.2 1946.04 1666.1 1946.72 1664 1947.43 1661.91 1948.17 1659.82 1948.9 1657.73 1949.66 1655.66 1950.45 1653.6 1951.24 1651.53 1952.05 1649.47 1952.89 1647.43 1953.72 1645.38 1954.59 1643.34 1955.48 1641.32 1956.36 1639.3 1957.27 1637.28 1958.21 1635.28 1959.15 1633.28 1960.11 1631.29 1961.1 1629.31 1962.09 1627.33 1963.1 1625.37 1964.13 1623.41 1965.17 1621.46 1966.23 1619.52 1967.31 1617.59 1968.39 1615.66 1969.5 1613.75 1970.63 1611.85 1971.76 1609.95 1972.91 1608.07 1974.09 1606.2 1975.27 1604.32 1976.47 1602.47 1977.69 1600.62 1978.91 1598.78 1980.16 1596.96 1981.43 1595.15 1982.7 1593.34 1983.99 1591.54 1985.3 1589.76 1986.61 1587.98 1987.94 1586.22 1989.3 1584.47 1990.66 1582.73 1992.03 1581 1993.43 1579.29 1994.83 1577.57 1996.25 1575.88 1997.69 1574.2 1999.13 1572.53 2000.59 1570.87 2002.07 1569.23 2003.56 1567.59 2005.05 1565.97 2006.58 1564.36 2008.1 1562.76 2009.64 1561.17 2011.2 1559.6 2012.76 1558.04 2014.34 1556.49 2015.94 1554.97 2017.54 1553.44 2019.16 1551.93 2020.79 1550.44 2022.43 1548.96 2024.08 1547.5 2025.76 1546.05 2027.43 1544.6 2029.12 1543.18 2030.82 1541.77 2032.53 1540.37 2034.26 1538.99 2036 1537.63 2037.74 1536.26 2039.5 1534.92 2041.27 1533.6 2043.05 1532.29 2044.84 1530.99 2046.65 1529.72L2046.84 1344.48 2046.78 870.025 2046.75 687.461C2046.73 658.318 2044.33 621.672 2047.76 593.566 2051.17 565.663 2061.66 538.901 2079.74 517.28 2107.17 484.481 2144.32 465.315 2186.7 461.434Z" fill-rule="evenodd"/><path d="M2189.95 499.14C2191.64 499.089 2193.33 499.05 2195.02 499.02 2227.99 498.462 2257.88 509.449 2281.6 532.732 2283.69 534.764 2285.69 536.878 2287.6 539.071 2289.52 541.265 2291.34 543.534 2293.07 545.875 2294.81 548.216 2296.44 550.626 2297.98 553.101 2299.51 555.573 2300.95 558.106 2302.28 560.698 2303.61 563.287 2304.84 565.927 2305.95 568.615 2307.07 571.307 2308.08 574.037 2308.98 576.807 2309.87 579.578 2310.66 582.38 2311.33 585.216 2312 588.052 2312.56 590.909 2313 593.79 2316.63 618.648 2313.93 655.311 2313.9 681.177L2313.61 869.512 2313.4 1550.2C2324.01 1556.52 2333.97 1564.24 2343.4 1572.19 2391.29 1612.59 2421.75 1665.28 2427.06 1728.24 2432.38 1791.25 2415.13 1849.47 2373.95 1897.68 2333.22 1945.35 2275.85 1971.23 2213.95 1975.88 2190.98 1976.43 2169.04 1975.2 2146.63 1969.81 2143.04 1968.93 2139.46 1967.96 2135.91 1966.9 2132.36 1965.85 2128.84 1964.71 2125.35 1963.48 2121.85 1962.25 2118.39 1960.94 2114.96 1959.54 2111.53 1958.15 2108.13 1956.67 2104.77 1955.11 2101.42 1953.55 2098.1 1951.91 2094.82 1950.19 2091.54 1948.46 2088.3 1946.66 2085.11 1944.78 2081.92 1942.9 2078.77 1940.95 2075.68 1938.91 2072.58 1936.88 2069.53 1934.78 2066.54 1932.6 2063.55 1930.42 2060.6 1928.16 2057.72 1925.84 2054.83 1923.52 2052.01 1921.12 2049.24 1918.66 2046.47 1916.2 2043.76 1913.67 2041.11 1911.08 2038.47 1908.49 2035.88 1905.84 2033.37 1903.12 2030.85 1900.4 2028.4 1897.62 2026.02 1894.78 2023.63 1891.95 2021.32 1889.05 2019.08 1886.1 2016.83 1883.15 2014.67 1880.15 2012.57 1877.1 2010.47 1874.04 2008.45 1870.94 2006.5 1867.78 2004.52 1864.47 2002.61 1861.1 2000.79 1857.69 1998.97 1854.28 1997.23 1850.82 1995.58 1847.33 1993.93 1843.83 1992.36 1840.29 1990.89 1836.72 1989.41 1833.15 1988.02 1829.54 1986.72 1825.89 1985.42 1822.25 1984.21 1818.58 1983.09 1814.87 1981.97 1811.17 1980.94 1807.44 1980 1803.69 1979.07 1799.94 1978.23 1796.16 1977.48 1792.37 1976.72 1788.57 1976.07 1784.76 1975.51 1780.93 1974.94 1777.11 1974.48 1773.27 1974.1 1769.42 1973.73 1765.57 1973.45 1761.71 1973.27 1757.85 1973.08 1753.98 1972.99 1750.12 1973 1746.25 1973.01 1742.38 1973.11 1738.51 1973.31 1734.65 1973.5 1730.79 1973.79 1726.93 1974.18 1723.08 1974.57 1719.23 1975.05 1715.4 1975.62 1711.57 1976.2 1707.75 1976.87 1703.94 1977.63 1700.14 1978.4 1696.35 1979.25 1692.58 1980.2 1688.83 1994.93 1630.44 2035.28 1581.18 2086.44 1550.67L2086.2 903.535 2085.52 697.152 2085.46 638.841C2085.45 625.729 2084.91 612.336 2086.47 599.307 2089.02 577.89 2096.49 559.313 2110.05 542.458 2111.28 540.949 2112.54 539.474 2113.84 538.03 2115.14 536.583 2116.47 535.17 2117.84 533.791 2119.21 532.413 2120.61 531.065 2122.05 529.752 2123.48 528.442 2124.94 527.167 2126.44 525.925 2127.94 524.685 2129.46 523.481 2131.01 522.316 2132.57 521.151 2134.15 520.027 2135.76 518.937 2137.37 517.847 2139.01 516.799 2140.67 515.791 2142.33 514.784 2144.01 513.815 2145.72 512.89 2147.43 511.965 2149.16 511.082 2150.91 510.239 2152.66 509.397 2154.43 508.599 2156.22 507.843 2158.01 507.09 2159.82 506.379 2161.64 505.712 2163.46 505.045 2165.3 504.423 2167.16 503.847 2169.01 503.27 2170.88 502.739 2172.77 502.253 2174.64 501.768 2176.54 501.329 2178.44 500.936 2180.34 500.543 2182.25 500.197 2184.17 499.897 2186.09 499.598 2188.02 499.345 2189.95 499.14Z" fill="#BFBFBF" fill-rule="evenodd"/><path d="M2189.06 538.708C2193.22 538.337 2197.4 537.959 2201.58 538.004 2222.76 538.231 2241.34 545.993 2256.18 561.141 2265.08 570.214 2274.98 584.395 2276.74 597.163 2278.86 612.544 2278.29 628.177 2278.28 643.664L2278.24 702.773 2278.05 912.444 2278.19 1344.05C2278.55 1422.16 2278.37 1500.27 2277.64 1578.38 2290.05 1582.64 2301.95 1589.92 2312.26 1597.98 2352.35 1629.32 2380.86 1675.8 2386.61 1726.73 2392.45 1778.45 2380.06 1826.19 2347.16 1866.78 2312.8 1909.2 2265.38 1930.14 2211.89 1935.9 2186.94 1936.59 2162.54 1933.74 2138.95 1925.39 2092.05 1908.79 2053.21 1875.97 2031.96 1830.57 2030.63 1827.71 2029.37 1824.83 2028.18 1821.91 2026.99 1818.99 2025.87 1816.04 2024.83 1813.07 2023.79 1810.09 2022.82 1807.09 2021.92 1804.07 2021.02 1801.05 2020.2 1798.01 2019.46 1794.94 2018.71 1791.88 2018.04 1788.8 2017.44 1785.71 2016.85 1782.61 2016.33 1779.5 2015.89 1776.38 2015.45 1773.26 2015.08 1770.13 2014.8 1766.99 2014.51 1763.85 2014.3 1760.71 2014.17 1757.56 2014.04 1754.41 2013.98 1751.26 2014.01 1748.11 2014.03 1744.95 2014.13 1741.8 2014.31 1738.66 2014.49 1735.51 2014.75 1732.37 2015.08 1729.24 2015.41 1726.1 2015.82 1722.98 2016.31 1719.86 2016.8 1716.75 2017.36 1713.65 2018 1710.56 2018.64 1707.48 2019.36 1704.41 2020.15 1701.35 2020.94 1698.3 2021.81 1695.28 2022.75 1692.27 2023.69 1689.26 2024.71 1686.28 2025.79 1683.32 2042.67 1637.73 2077.61 1597.53 2122.22 1577.23 2121.6 1507.89 2121.58 1438.55 2122.16 1369.2L2121.89 951.926 2122.42 720.045 2122.44 650.884C2122.35 636.524 2121.52 621.817 2122.56 607.508 2123.44 595.51 2127.13 584.522 2133.65 574.421 2146.73 554.151 2165.95 543.618 2189.06 538.708Z" fill-rule="evenodd"/><path d="M2143.49 931.131C2180.78 930.161 2219.31 929.168 2256.55 931.124 2255.12 956.331 2256.13 982.174 2256.14 1007.44L2256.15 1148.74 2256.77 1593.47C2257.54 1593.74 2258.3 1594.03 2259.05 1594.32 2261.61 1595.34 2264.14 1596.43 2266.64 1597.58 2269.14 1598.73 2271.61 1599.93 2274.05 1601.2 2276.49 1602.47 2278.9 1603.8 2281.28 1605.19 2283.65 1606.58 2285.99 1608.02 2288.3 1609.52 2290.6 1611.03 2292.87 1612.59 2295.1 1614.2 2297.32 1615.81 2299.51 1617.48 2301.66 1619.2 2303.8 1620.93 2305.91 1622.7 2307.97 1624.52 2310.02 1626.35 2312.04 1628.22 2314 1630.15 2315.97 1632.07 2317.89 1634.04 2319.75 1636.06 2321.62 1638.08 2323.44 1640.14 2325.21 1642.25 2326.98 1644.36 2328.69 1646.51 2330.36 1648.7 2332.02 1650.89 2333.62 1653.12 2335.18 1655.4 2336.73 1657.67 2338.22 1659.97 2339.66 1662.32 2341.1 1664.66 2342.48 1667.04 2343.8 1669.46 2345.12 1671.87 2346.38 1674.31 2347.58 1676.79 2348.78 1679.26 2349.92 1681.76 2351 1684.29 2368.39 1725.31 2370.19 1771.11 2352.96 1812.54 2336.14 1853 2302.33 1884.81 2261.93 1901.24 2259.39 1902.24 2256.84 1903.18 2254.26 1904.06 2251.68 1904.94 2249.07 1905.75 2246.46 1906.5 2243.83 1907.25 2241.2 1907.94 2238.54 1908.56 2235.89 1909.19 2233.22 1909.74 2230.54 1910.24 2227.86 1910.73 2225.17 1911.16 2222.47 1911.52 2219.76 1911.88 2217.05 1912.18 2214.34 1912.41 2211.62 1912.64 2208.9 1912.8 2206.18 1912.89 2203.45 1912.99 2200.73 1913.02 2198 1912.99 2195.28 1912.95 2192.55 1912.85 2189.83 1912.68 2187.11 1912.51 2184.39 1912.27 2181.69 1911.98 2178.98 1911.67 2176.28 1911.31 2173.59 1910.88 2170.9 1910.44 2168.22 1909.94 2165.55 1909.38 2162.88 1908.82 2160.23 1908.19 2157.59 1907.5 2154.96 1906.81 2152.34 1906.05 2149.74 1905.23 2147.14 1904.41 2144.56 1903.53 2142.01 1902.59 2139.45 1901.64 2136.92 1900.63 2134.41 1899.56 2092.14 1881.68 2063.49 1848.66 2046.73 1806.43 2031.59 1768.27 2034.88 1717.89 2051.32 1680.7 2069.92 1638.61 2101.68 1610.26 2144.22 1593.81 2142.56 1530.49 2144 1466.79 2143.93 1403.43L2143.49 931.131Z" fill="#E82C2F" fill-rule="evenodd"/><path d="M2143.27 931C2142.9 856.582 2142.91 782.163 2143.31 707.745L2143.29 649.462C2143.23 635.452 2142.37 620.944 2144.59 607.067 2146.5 595.086 2150.71 585.587 2159.46 576.86 2160.85 575.483 2162.31 574.182 2163.83 572.95 2165.36 571.721 2166.93 570.57 2168.57 569.499 2170.21 568.428 2171.9 567.443 2173.64 566.543 2175.37 565.641 2177.15 564.83 2178.97 564.109 2180.79 563.389 2182.64 562.76 2184.52 562.225 2186.41 561.689 2188.31 561.25 2190.24 560.906 2192.17 560.56 2194.11 560.316 2196.06 560.169 2198.01 560.021 2199.97 559.969 2201.92 560.017 2217.1 560.467 2232.41 568.209 2242.55 579.373 2249.76 587.303 2253.74 596.002 2255.3 606.535 2257.47 621.167 2256.66 636.42 2256.67 651.185L2256.68 717.687C2256.66 788.714 2257.68 859.994 2256.18 930.993 2219 929.039 2180.52 930.032 2143.27 931Z" fill="#BFBFBF" fill-rule="evenodd"/><path d="M2390.03 589C2482.8 613.746 2585.66 675.922 2655.46 741.174 2659.53 745.049 2663.56 748.975 2667.54 752.946 2671.52 756.92 2675.45 760.942 2679.33 765.013 2683.21 769.083 2687.03 773.202 2690.81 777.365 2694.59 781.529 2698.32 785.74 2702 789.996 2705.67 794.253 2709.29 798.553 2712.86 802.895 2716.43 807.241 2719.95 811.628 2723.41 816.06 2726.88 820.491 2730.28 824.964 2733.64 829.478 2736.99 833.992 2740.28 838.547 2743.52 843.144 2746.76 847.74 2749.95 852.374 2753.07 857.05 2756.2 861.722 2759.27 866.436 2762.28 871.184 2765.29 875.932 2768.24 880.717 2771.13 885.541 2774.02 890.36 2776.86 895.215 2779.63 900.107 2782.41 904.999 2785.12 909.922 2787.77 914.88 2790.42 919.841 2793.02 924.83 2795.55 929.849 2798.07 934.872 2800.54 939.922 2802.95 945.007 2805.36 950.088 2807.7 955.197 2809.98 960.337 2812.26 965.476 2814.48 970.644 2816.63 975.838 2818.78 981.033 2820.87 986.252 2822.9 991.495 2824.92 996.741 2826.88 1002.01 2828.78 1007.31 2830.67 1012.6 2832.51 1017.91 2834.27 1023.25 2836.04 1028.59 2837.73 1033.95 2839.37 1039.33 2841 1044.71 2842.57 1050.11 2844.07 1055.53 2845.57 1060.94 2847 1066.38 2848.37 1071.84 2849.74 1077.29 2851.04 1082.76 2852.27 1088.24 2853.5 1093.73 2854.67 1099.23 2855.76 1104.74 2856.86 1110.26 2857.89 1115.78 2858.85 1121.32 2859.82 1126.86 2860.71 1132.41 2861.54 1137.98 2862.36 1143.53 2863.12 1149.11 2863.81 1154.69 2864.49 1160.27 2865.11 1165.85 2865.67 1171.45 2866.22 1177.04 2866.7 1182.65 2867.11 1188.25 2867.53 1193.86 2867.87 1199.47 2868.15 1205.09 2868.42 1210.7 2868.63 1216.32 2868.77 1221.94 2868.9 1226.87 2868.97 1231.81 2868.99 1236.74 2869.02 1241.67 2868.98 1246.61 2868.89 1251.54 2868.81 1256.47 2868.66 1261.41 2868.47 1266.34 2868.27 1271.27 2868.02 1276.2 2867.71 1281.12 2867.41 1286.04 2867.05 1290.96 2866.63 1295.88 2866.21 1300.8 2865.75 1305.71 2865.22 1310.62 2864.7 1315.52 2864.12 1320.42 2863.49 1325.32 2862.86 1330.21 2862.17 1335.09 2861.43 1339.97 2860.69 1344.85 2859.9 1349.72 2859.05 1354.58 2858.2 1359.44 2857.3 1364.29 2856.34 1369.13 2855.39 1373.98 2854.38 1378.81 2853.32 1383.62 2852.25 1388.44 2851.13 1393.25 2849.97 1398.04 2848.8 1402.84 2847.58 1407.61 2846.3 1412.38 2845.03 1417.15 2843.7 1421.9 2842.32 1426.64 2840.94 1431.38 2839.51 1436.1 2838.02 1440.8 2836.54 1445.51 2835 1450.2 2833.41 1454.87 2831.83 1459.54 2830.19 1464.2 2828.5 1468.83 2826.8 1473.47 2825.06 1478.09 2823.27 1482.68 2821.48 1487.28 2819.63 1491.85 2817.74 1496.41 2815.84 1500.97 2813.9 1505.5 2811.9 1510.01 2809.91 1514.53 2807.86 1519.02 2805.77 1523.49 2803.67 1527.95 2801.53 1532.4 2799.34 1536.82 2797.15 1541.24 2794.9 1545.64 2792.61 1550.01 2790.32 1554.38 2787.98 1558.72 2785.6 1563.04 2783.21 1567.36 2780.78 1571.65 2778.3 1575.92 2775.82 1580.19 2773.29 1584.42 2770.71 1588.63 2768.13 1592.84 2765.51 1597.03 2762.85 1601.17 2760.18 1605.32 2757.47 1609.45 2754.71 1613.54 2751.95 1617.63 2749.14 1621.69 2746.3 1625.72 2743.44 1629.75 2740.55 1633.75 2737.61 1637.71 2734.68 1641.68 2731.7 1645.61 2728.67 1649.51 2725.65 1653.41 2722.58 1657.27 2719.47 1661.11 2708.95 1674.29 2698.68 1687.94 2687.15 1700.25 2685.61 1701.42 2684.05 1702.63 2682.38 1703.59 2677.06 1706.69 2669.88 1706.51 2664.18 1704.68 2658.13 1702.75 2652.65 1698.56 2650 1692.68 2649.45 1691.48 2649.02 1690.23 2648.73 1688.93 2648.45 1687.64 2648.3 1686.33 2648.3 1685 2648.29 1680.41 2649.58 1676.65 2651.97 1672.77 2658.13 1662.82 2667.39 1654.25 2674.96 1645.29 2686.46 1631.43 2697.44 1617.18 2707.92 1602.53 2741.02 1555.96 2766.49 1504.92 2786.45 1451.46 2795.7 1426.66 2802.17 1402.01 2807.99 1376.21 2808.95 1372 2809.86 1367.78 2810.74 1363.55 2811.62 1359.32 2812.44 1355.08 2813.23 1350.84 2814.02 1346.59 2814.76 1342.33 2815.46 1338.07 2816.16 1333.81 2816.82 1329.54 2817.43 1325.27 2818.04 1320.99 2818.61 1316.71 2819.13 1312.42 2819.65 1308.14 2820.13 1303.84 2820.57 1299.55 2821.01 1295.25 2821.39 1290.95 2821.74 1286.64 2822.09 1282.34 2822.39 1278.03 2822.65 1273.72 2822.91 1269.41 2823.12 1265.09 2823.29 1260.78 2823.46 1256.46 2823.58 1252.15 2823.67 1247.83 2823.75 1243.51 2823.78 1239.19 2823.77 1234.87 2823.77 1230.55 2823.72 1226.23 2823.62 1221.92 2823.52 1217.6 2823.38 1213.28 2823.19 1208.97 2823.01 1204.65 2822.78 1200.34 2822.5 1196.03 2822.23 1191.72 2821.91 1187.41 2821.55 1183.11 2821.18 1178.8 2820.77 1174.5 2820.32 1170.21 2819.87 1165.92 2819.38 1161.63 2818.84 1157.34 2818.3 1153.05 2817.71 1148.77 2817.09 1144.5 2816.46 1140.23 2815.79 1135.96 2815.07 1131.7 2814.36 1127.44 2813.6 1123.19 2812.79 1118.95 2811.99 1114.7 2811.14 1110.47 2810.25 1106.24 2809.36 1102.02 2808.43 1097.8 2807.45 1093.59 2806.48 1089.39 2805.46 1085.19 2804.39 1081 2803.33 1076.82 2802.23 1072.64 2801.07 1068.48 2799.92 1064.31 2798.73 1060.16 2797.5 1056.03 2796.26 1051.89 2794.99 1047.76 2793.67 1043.65 2792.35 1039.53 2790.99 1035.44 2789.59 1031.35 2788.18 1027.27 2786.74 1023.2 2785.25 1019.14 2783.76 1015.09 2782.23 1011.05 2780.66 1007.02 2779.09 1003 2777.48 998.993 2775.83 995.001 2774.17 991.01 2772.48 987.039 2770.74 983.082 2769.01 979.125 2767.24 975.189 2765.42 971.269 2749.06 935.645 2729.38 903.078 2706.92 870.988 2624.92 753.815 2522.24 684.506 2389.35 635.192 2389.49 620.11 2388.11 603.89 2390.03 589Z" fill="#A72B2D" fill-rule="evenodd"/><path d="M2010.82 589 2011.43 589.295C2013.97 594.373 2012.63 626.108 2012.79 634.362 1928.61 665.427 1859.99 700.342 1791.1 758.653 1667.39 863.372 1589.64 1022.19 1576.31 1183.01 1563.14 1341.93 1609.9 1493.77 1704.28 1621.41 1720.34 1643.12 1739.25 1661.98 1756.66 1682.52 1746.04 1691.36 1737.15 1703.07 1725.98 1711 1722.85 1710.49 1721.07 1707.97 1718.98 1705.79 1714.34 1700.91 1709.78 1695.97 1705.29 1690.97 1700.8 1685.96 1696.38 1680.89 1692.04 1675.76 1687.69 1670.63 1683.42 1665.43 1679.22 1660.18 1675.02 1654.92 1670.9 1649.61 1666.86 1644.23 1662.81 1638.86 1658.85 1633.43 1654.96 1627.94 1651.07 1622.45 1647.26 1616.91 1643.53 1611.31 1639.81 1605.72 1636.15 1600.07 1632.59 1594.37 1629.02 1588.67 1625.54 1582.92 1622.14 1577.11 1618.73 1571.31 1615.42 1565.46 1612.18 1559.57 1608.95 1553.67 1605.8 1547.73 1602.73 1541.74 1599.67 1535.75 1596.69 1529.72 1593.8 1523.65 1590.91 1517.58 1588.11 1511.47 1585.4 1505.31 1582.68 1499.16 1580.05 1492.97 1577.52 1486.74 1574.98 1480.52 1572.53 1474.25 1570.17 1467.95 1567.82 1461.65 1565.55 1455.32 1563.37 1448.96 1561.2 1442.6 1559.11 1436.2 1557.12 1429.78 1555.55 1424.48 1554.04 1419.17 1552.59 1413.84 1551.15 1408.51 1549.77 1403.16 1548.46 1397.8 1547.15 1392.43 1545.9 1387.05 1544.72 1381.66 1543.53 1376.26 1542.42 1370.85 1541.37 1365.43 1540.32 1360.01 1539.33 1354.57 1538.41 1349.13 1537.5 1343.68 1536.65 1338.22 1535.86 1332.76 1535.08 1327.29 1534.36 1321.81 1533.71 1316.33 1533.06 1310.84 1532.48 1305.35 1531.97 1299.85 1531.45 1294.35 1531 1288.85 1530.62 1283.34 1530.24 1277.83 1529.92 1272.32 1529.68 1266.8 1529.43 1261.28 1529.25 1255.76 1529.14 1250.24 1529.03 1244.72 1528.98 1239.2 1529.01 1233.67 1529.03 1228.15 1529.12 1222.63 1529.28 1217.11 1529.43 1211.59 1529.66 1206.07 1529.95 1200.55 1530.24 1195.04 1530.6 1189.53 1531.03 1184.02 1531.46 1178.51 1531.96 1173.01 1532.52 1167.52 1533.08 1162.02 1533.71 1156.54 1534.4 1151.06 1535.1 1145.58 1535.86 1140.11 1536.69 1134.65 1537.52 1129.19 1538.41 1123.74 1539.38 1118.3 1540.34 1112.86 1541.37 1107.44 1542.46 1102.02 1543.56 1096.61 1544.72 1091.21 1545.95 1085.83 1547.17 1080.44 1548.47 1075.07 1549.82 1069.72 1551.18 1064.37 1552.61 1059.03 1554.09 1053.71 1555.58 1048.39 1557.14 1043.09 1558.75 1037.81 1560.37 1032.53 1562.05 1027.27 1563.8 1022.03 1565.55 1016.79 1567.36 1011.57 1569.23 1006.38 1571.1 1001.18 1573.04 996.006 1575.04 990.86 1577.04 985.714 1579.11 980.589 1581.23 975.491 1583.35 970.393 1585.54 965.323 1587.79 960.28 1590.04 955.233 1592.35 950.218 1594.72 945.23 1597.09 940.242 1599.53 935.282 1602.02 930.356 1604.51 925.426 1607.07 920.528 1609.68 915.664 1612.29 910.786 1614.97 905.946 1617.7 901.136 1620.43 896.328 1623.23 891.549 1626.08 886.809 1628.93 882.068 1631.84 877.366 1634.8 872.694 1637.77 868.026 1640.8 863.396 1643.88 858.8 1646.96 854.207 1650.1 849.652 1653.29 845.135 1656.48 840.619 1659.74 836.143 1663.04 831.705 1666.34 827.267 1669.7 822.874 1673.12 818.522 1676.53 814.167 1680 809.856 1683.52 805.59 1687.04 801.324 1690.61 797.099 1694.24 792.919 1697.86 788.739 1701.54 784.604 1705.26 780.516 1708.99 776.429 1712.77 772.386 1716.59 768.392 1720.42 764.398 1724.29 760.451 1728.22 756.55 1732.14 752.651 1736.11 748.801 1740.13 744.999 1744.15 741.197 1748.22 737.447 1752.33 733.745 1756.44 730.043 1760.6 726.396 1764.8 722.796 1769 719.197 1773.25 715.653 1777.54 712.161 1781.83 708.668 1786.16 705.227 1790.53 701.841 1794.91 698.455 1799.32 695.124 1803.78 691.848 1808.24 688.572 1812.74 685.348 1817.27 682.182 1821.81 679.016 1826.38 675.908 1831 672.852 1835.61 669.799 1840.26 666.805 1844.95 663.866 1849.64 660.927 1854.36 658.05 1859.12 655.228 1863.88 652.406 1868.67 649.645 1873.5 646.943 1878.32 644.238 1883.18 641.595 1888.07 639.013 1892.97 636.431 1897.89 633.908 1902.84 631.447 1907.8 628.989 1912.78 626.589 1917.8 624.248 1922.81 621.911 1927.85 619.635 1932.92 617.422 1937.99 615.208 1943.09 613.059 1948.21 610.973 1953.34 608.886 1958.48 606.861 1963.66 604.898 1968.83 602.939 1974.02 601.045 1979.25 599.213 1984.47 597.381 1989.71 595.614 1994.97 593.912 2000.23 592.21 2005.52 590.571 2010.82 589Z" fill="#A72B2D" fill-rule="evenodd"/><path d="M2425.75 1074.32C2466.16 1073.46 2506.67 1073.96 2547.1 1073.91 2557.9 1073.89 2582.07 1072.15 2591.1 1073.53 2595.32 1074.18 2599.78 1076.22 2601.95 1079.97 2603.25 1082.23 2603.35 1084.81 2602.21 1087.14 2600.35 1090.93 2596.85 1092.5 2593.04 1093.88 2562.76 1095.08 2532.12 1094.28 2501.81 1094.37 2479.07 1094.44 2455.52 1095.76 2432.88 1094.36 2428.34 1094.08 2424.08 1093.31 2419.74 1091.98 2418.32 1090.71 2417.62 1089.83 2416.8 1088.09 2415.63 1085.62 2415.79 1082.93 2416.96 1080.48 2418.8 1076.62 2421.89 1075.48 2425.75 1074.32Z" fill-rule="evenodd"/><path d="M2422.99 803.512C2433.77 802.516 2445.1 803.267 2455.94 803.341L2518.64 803.739C2538.49 803.833 2578.28 801.663 2596.29 804.613 2599.38 805.12 2602.52 806.386 2604.08 809.364 2605.21 811.521 2605.2 814 2604.57 816.3 2603.49 820.265 2601.7 822.17 2598.32 824.281 2580.3 825.634 2561.53 824.655 2543.43 824.69L2441.17 824.806C2435.09 824.788 2421.71 825.97 2417.56 820.576 2415.57 817.996 2415.8 814.765 2416.52 811.78 2417.52 807.616 2419.51 805.746 2422.99 803.512Z" fill-rule="evenodd"/><path d="M2427.36 1482.6C2461.64 1481.83 2496.1 1482.6 2530.4 1482.63 2550.6 1482.64 2572.06 1481.06 2592.12 1482.87 2595.39 1483.16 2598.52 1483.54 2600.43 1486.56 2602.23 1489.42 2602.48 1493.62 2601.2 1496.69 2599.59 1500.56 2596.6 1501.74 2592.96 1503.08 2557.08 1503.43 2521.2 1503.52 2485.32 1503.36 2466.99 1503.34 2438.58 1505.83 2421.19 1501.12 2419.61 1499.77 2418.28 1498.7 2417.52 1496.69 2416.48 1493.96 2417.1 1491.26 2418.46 1488.79 2420.59 1484.87 2423.24 1483.68 2427.36 1482.6Z" fill-rule="evenodd"/><path d="M2426.37 1279C2463.17 1277.94 2500.2 1278.77 2537.03 1278.77 2552.54 1278.77 2574.69 1277.05 2589.52 1278.76 2593.25 1279.19 2597.63 1280.44 2599.71 1283.96 2601.03 1286.19 2601.38 1289.77 2600.56 1292.24 2599.25 1296.2 2595.72 1298.04 2592.28 1299.63 2558.34 1301.14 2523.79 1299.92 2489.78 1300.1 2472.8 1300.19 2442.65 1302.3 2426.92 1299.73 2423.86 1299.22 2420.92 1297.44 2419.29 1294.69 2417.9 1292.36 2417.65 1289.42 2418.47 1286.83 2419.84 1282.56 2422.68 1280.84 2426.37 1279Z" fill-rule="evenodd"/><path d="M2424.12 1143.59C2440.17 1142.9 2456.34 1143.22 2472.42 1143.23 2482.59 1143.23 2493.7 1142.37 2503.72 1143.97 2507.75 1144.61 2513.7 1145.9 2516.45 1149.14 2517.31 1150.14 2518.11 1151.77 2517.99 1153.12 2517.59 1157.45 2513.96 1161.41 2510.62 1164.02 2496.51 1165.06 2439.48 1165.72 2426.88 1163.6 2424.45 1163.2 2422.18 1162.38 2420.31 1160.77 2417.71 1158.54 2416.66 1155.37 2417.1 1152.07 2417.68 1147.67 2420.56 1145.78 2424.12 1143.59Z" fill-rule="evenodd"/><path d="M2426.78 1211.78C2440.34 1211 2499.43 1210.05 2510.18 1213.12 2512.92 1213.91 2514.98 1215.31 2516.16 1217.97 2517.35 1220.63 2517.19 1223.61 2516.2 1226.29 2514.72 1230.29 2511.78 1231.52 2508.09 1233.04 2490.68 1233.46 2440.19 1235.34 2426.49 1232.3 2423.1 1231.55 2420.84 1230.26 2419.12 1227.15 2417.27 1223.81 2418.01 1219.76 2419.19 1216.37 2421.47 1213.63 2423.42 1212.93 2426.78 1211.78Z" fill-rule="evenodd"/><path d="M2426.59 937.909C2442.62 937.503 2497.92 935.364 2509.99 939.532 2513.13 940.614 2516.38 942.279 2517.65 945.62 2518.33 947.405 2517.94 949.283 2517.13 950.966 2515.05 955.314 2512.9 957.98 2508.33 959.394 2496.03 959.991 2432.25 960.787 2423.51 958.245 2420.63 957.403 2418.04 956.014 2416.62 953.175 2415.42 950.785 2416.16 947.614 2417.18 945.277 2419.22 940.6 2422.17 939.493 2426.59 937.909Z" fill-rule="evenodd"/><path d="M2423.05 1415.32C2436.85 1414.14 2496.79 1412.98 2508.7 1415.51 2511.65 1416.14 2513.1 1417.26 2514.61 1419.84 2516.3 1422.74 2516.33 1426.48 2515.33 1429.63 2514.26 1432.98 2512.51 1433.94 2509.72 1435.55 2507.19 1435.89 2504.7 1435.97 2502.16 1436.02 2484.98 1436.35 2442.35 1438.45 2427.57 1435.25 2423.47 1434.36 2420.29 1433.02 2417.26 1430.05 2416.66 1428.52 2415.77 1427.21 2416.06 1425.52 2416.83 1421.1 2419.76 1418.03 2423.05 1415.32Z" fill-rule="evenodd"/><path d="M2426.93 1347.15C2444.02 1346.79 2461.19 1347.18 2478.29 1347.29 2488.26 1347.35 2500.09 1346.34 2509.86 1348.27 2512.71 1348.83 2514.56 1350.03 2515.86 1352.64 2517.44 1355.81 2517.36 1360.1 2515.71 1363.24 2514.47 1365.57 2511.4 1366.38 2509.03 1367.22 2496 1367.72 2433.92 1369.3 2424.54 1365.71 2421.81 1364.66 2419.03 1362.82 2418.23 1359.92 2417.55 1357.4 2418.45 1353.24 2419.95 1351.02 2421.83 1348.24 2423.9 1348.09 2426.93 1347.15Z" fill-rule="evenodd"/><path d="M2426.33 1006.19C2426.7 1006.18 2427.07 1006.16 2427.44 1006.15 2444.93 1005.69 2462.65 1006.43 2480.15 1006.59 2489.31 1006.67 2500.95 1005.46 2509.85 1007.34 2512.22 1007.85 2514.49 1008.94 2516.1 1010.85 2517.85 1012.93 2518.34 1015.59 2517.78 1018.24 2516.78 1022.9 2513.7 1024.98 2509.89 1027.24 2497.58 1028.14 2435.14 1028.77 2425.81 1025.96 2421.65 1024.71 2419.27 1023.06 2417.16 1019.15 2416.8 1015.97 2416.95 1013.18 2418.6 1010.33 2420.21 1007.53 2423.47 1007.01 2426.33 1006.19Z" fill-rule="evenodd"/><path d="M2426.41 870.939C2441.04 870.444 2496.49 868.815 2508.29 871.52 2511.26 872.199 2513.55 873.72 2514.95 876.56 2515.27 877.19 2515.51 877.849 2515.69 878.534 2515.86 879.22 2515.97 879.92 2515.99 880.626 2516.02 881.333 2515.97 882.036 2515.85 882.732 2515.73 883.432 2515.54 884.107 2515.28 884.761 2513.54 889.002 2509.07 890.223 2505.22 891.741 2491.74 891.549 2431.89 892.928 2424.76 890.77 2421.8 889.879 2418.77 888.1 2417.57 885.047 2416.38 882.06 2417.16 877.497 2418.94 874.942 2420.73 872.39 2423.62 871.715 2426.41 870.939Z" fill-rule="evenodd"/></g></svg>
